<svg width="16" height="16" viewBox="0 0 16 16" fill="none" xmlns="http://www.w3.org/2000/svg">
<path d="M10.667 2.66683C11.287 2.66683 11.597 2.66683 11.8513 2.73498C12.5415 2.91991 13.0806 3.45901 13.2655 4.14919C13.3337 4.40352 13.3337 4.71352 13.3337 5.3335V11.4668C13.3337 12.5869 13.3337 13.147 13.1157 13.5748C12.9239 13.9511 12.618 14.2571 12.2416 14.4488C11.8138 14.6668 11.2538 14.6668 10.1337 14.6668H5.86699C4.74689 14.6668 4.18683 14.6668 3.75901 14.4488C3.38269 14.2571 3.07673 13.9511 2.88498 13.5748C2.66699 13.147 2.66699 12.5869 2.66699 11.4668V5.3335C2.66699 4.71352 2.66699 4.40352 2.73514 4.14919C2.92007 3.45901 3.45917 2.91991 4.14935 2.73498C4.40369 2.66683 4.71368 2.66683 5.33366 2.66683M6.00033 10.0002L7.33366 11.3335L10.3337 8.3335M6.40033 4.00016H9.60032C9.97369 4.00016 10.1604 4.00016 10.303 3.9275C10.4284 3.86359 10.5304 3.7616 10.5943 3.63616C10.667 3.49355 10.667 3.30686 10.667 2.9335V2.40016C10.667 2.02679 10.667 1.84011 10.5943 1.6975C10.5304 1.57206 10.4284 1.47007 10.303 1.40616C10.1604 1.3335 9.97369 1.3335 9.60033 1.3335H6.40033C6.02696 1.3335 5.84027 1.3335 5.69767 1.40616C5.57222 1.47007 5.47024 1.57206 5.40632 1.6975C5.33366 1.84011 5.33366 2.02679 5.33366 2.40016V2.9335C5.33366 3.30686 5.33366 3.49355 5.40632 3.63616C5.47024 3.7616 5.57222 3.86359 5.69767 3.9275C5.84027 4.00016 6.02696 4.00016 6.40033 4.00016Z" stroke="#666666" stroke-width="1.5" stroke-linecap="round" stroke-linejoin="round"/>
</svg>
