<svg width="16" height="16" viewBox="0 0 16 16" fill="none" xmlns="http://www.w3.org/2000/svg">
<path d="M6.125 5L9.875 8.75M9.875 5L6.125 8.75M6.425 13.4L7.52 14.86C7.68284 15.0771 7.76426 15.1857 7.86407 15.2245C7.9515 15.2585 8.0485 15.2585 8.13593 15.2245C8.23574 15.1857 8.31716 15.0771 8.48 14.86L9.575 13.4C9.79486 13.1069 9.90479 12.9603 10.0389 12.8484C10.2177 12.6992 10.4287 12.5936 10.6554 12.5401C10.8253 12.5 11.0086 12.5 11.375 12.5C12.4234 12.5 12.9476 12.5 13.361 12.3287C13.9124 12.1004 14.3504 11.6624 14.5787 11.111C14.75 10.6976 14.75 10.1734 14.75 9.125V4.85C14.75 3.58988 14.75 2.95982 14.5048 2.47852C14.289 2.05516 13.9448 1.71095 13.5215 1.49524C13.0402 1.25 12.4101 1.25 11.15 1.25H4.85C3.58988 1.25 2.95982 1.25 2.47852 1.49524C2.05516 1.71095 1.71095 2.05516 1.49524 2.47852C1.25 2.95982 1.25 3.58988 1.25 4.85V9.125C1.25 10.1734 1.25 10.6976 1.42127 11.111C1.64963 11.6624 2.08765 12.1004 2.63896 12.3287C3.05245 12.5 3.57663 12.5 4.625 12.5C4.99143 12.5 5.17465 12.5 5.34463 12.5401C5.57127 12.5936 5.78234 12.6992 5.96112 12.8484C6.09521 12.9603 6.20514 13.1069 6.425 13.4Z" stroke="black" stroke-width="1.5" stroke-linecap="round" stroke-linejoin="round"/>
</svg>
