<svg width="14" height="14" viewBox="0 0 14 14" fill="none" xmlns="http://www.w3.org/2000/svg">
<path d="M5.13583 5.08333C5.27298 4.69347 5.54367 4.36473 5.89997 4.15533C6.25627 3.94593 6.67519 3.86938 7.08252 3.93925C7.48985 4.00912 7.85931 4.22089 8.12546 4.53706C8.39161 4.85323 8.53728 5.25339 8.53667 5.66667C8.53667 6.83333 6.78667 7.41667 6.78667 7.41667M6.83333 9.75H6.83917M12.6667 6.83333C12.6667 10.055 10.055 12.6667 6.83333 12.6667C3.61167 12.6667 1 10.055 1 6.83333C1 3.61167 3.61167 1 6.83333 1C10.055 1 12.6667 3.61167 12.6667 6.83333Z" stroke="#0177FB" stroke-width="1.5" stroke-linecap="round" stroke-linejoin="round"/>
</svg>
