<svg width="120" height="120" viewBox="0 0 120 120" fill="none" xmlns="http://www.w3.org/2000/svg">
<path d="M59.8143 119.48C92.7819 119.48 119.507 92.7546 119.507 59.7869C119.507 26.8193 92.7819 0.09375 59.8143 0.09375C26.8466 0.09375 0.121094 26.8193 0.121094 59.7869C0.121094 92.7546 26.8466 119.48 59.8143 119.48Z" fill="white"/>
<path d="M58.166 67.1817C68.6896 67.1817 77.2207 58.6506 77.2207 48.127C77.2207 37.6033 68.6896 29.0723 58.166 29.0723C47.6424 29.0723 39.1113 37.6033 39.1113 48.127C39.1113 58.6506 47.6424 67.1817 58.166 67.1817Z" fill="#FFB6B6"/>
<path d="M104.597 99.7262C94.2551 111.493 79.7008 118.722 64.0757 119.851C48.4507 120.98 33.0082 115.92 21.082 105.762L26.202 91.4752C27.3591 88.9378 29.185 86.7631 31.484 85.1844C33.783 83.6057 36.4683 82.6825 39.2521 82.5139L42.5093 82.3139L50.2761 75.6153C50.2761 75.6153 71.2035 74.868 70.893 74.5103L83.5694 82.135L83.5589 82.0824L88.5421 82.3876C91.326 82.5555 94.0117 83.4784 96.3108 85.0571C98.6099 86.6359 100.436 88.811 101.592 91.349L104.597 99.7262Z" fill="#0177FB"/>
<path d="M78.2617 36.3093C76.6515 30.5461 72.9932 25.5687 67.9734 22.3114C63.973 19.7527 58.9811 18.4464 54.449 19.7996C49.9169 21.1527 46.1646 25.6004 46.4613 30.4059C44.8254 29.8492 42.9656 30.5899 41.7681 31.8552C40.5706 33.1207 39.9267 34.8228 39.4655 36.5172C38.0112 41.9051 38.1075 47.5941 39.7435 52.9296L39.6535 53.6954C41.8646 53.3296 43.5417 51.4325 44.5846 49.4112C45.6275 47.39 46.2277 45.1475 47.358 43.1757C48.4883 41.2039 50.3654 39.4449 52.6045 39.3834L52.4072 42.8061C54.3337 41.8136 56.2602 40.821 58.1867 39.8285C57.7284 40.9246 57.2702 42.0208 56.8119 43.117C58.4944 42.4138 60.1768 41.7106 61.8593 41.0074C61.6712 42.0615 61.4831 43.1155 61.295 44.1696C62.9636 40.3717 68.1237 38.7034 71.6339 40.8267C73.6725 42.0599 75.01 44.2576 75.7135 46.5656C76.417 48.8736 76.5561 51.3151 76.6904 53.7281C79.2901 48.2992 79.848 42.1157 78.2617 36.3093Z" fill="#2F2E41"/>
</svg>
