<svg width="120" height="120" viewBox="0 0 120 120" fill="none" xmlns="http://www.w3.org/2000/svg">
<path d="M59.6932 119.48C92.6608 119.48 119.386 92.7546 119.386 59.7869C119.386 26.8193 92.6608 0.09375 59.6932 0.09375C26.7256 0.09375 0 26.8193 0 59.7869C0 92.7546 26.7256 119.48 59.6932 119.48Z" fill="white"/>
<path d="M60.2256 62.2754C73.372 62.2754 84.0293 51.6181 84.0293 38.4717C84.0293 25.3253 73.372 14.668 60.2256 14.668C47.0792 14.668 36.4219 25.3253 36.4219 38.4717C36.4219 51.6181 47.0792 62.2754 60.2256 62.2754Z" fill="#2F2E41"/>
<path d="M60.2356 65.4028C71.9799 65.4028 81.5005 55.8822 81.5005 44.1379C81.5005 32.3937 71.9799 22.873 60.2356 22.873C48.4913 22.873 38.9707 32.3937 38.9707 44.1379C38.9707 55.8822 48.4913 65.4028 60.2356 65.4028Z" fill="#FFB8B8"/>
<path d="M104.314 99.0099C93.9719 110.777 79.4176 118.006 63.7925 119.135C48.1674 120.264 32.725 115.203 20.7988 105.046L25.9188 90.7589C27.0759 88.2214 28.9018 86.0468 31.2008 84.4681C33.4998 82.8894 36.1851 81.9662 38.9688 81.7976L42.2261 81.5976L49.9929 74.899C49.9929 74.899 70.9203 74.1518 70.6098 73.7939L83.2862 81.4187L83.2757 81.3661L88.2589 81.6713C91.0428 81.8392 93.7284 82.7621 96.0276 84.3409C98.3267 85.9196 100.152 88.0947 101.309 90.6326L104.314 99.0099Z" fill="#0177FB"/>
<path d="M82.6716 36.6801C82.8208 35.0924 82.8892 33.4982 82.8765 31.9036C82.9633 28.75 82.3855 25.6133 81.1806 22.6976C79.6986 19.4693 77.0563 16.9166 73.7788 15.5469C70.5301 14.2366 66.8994 14.2398 63.6531 15.5558C60.7221 13.704 57.4656 12.236 54.0359 12.0541C50.6063 11.8723 46.9802 13.1447 44.8667 15.9455C44.3947 16.6848 43.8587 17.3812 43.2647 18.0267C41.5658 19.6 38.984 19.373 36.7258 19.0513C37.7386 19.9194 38.7517 20.7875 39.7651 21.6555C38.5391 21.9758 37.3129 22.2961 36.0867 22.6164C37.5175 23.4841 38.9482 24.3519 40.3788 25.2197C36.2253 27.7127 34.3374 33.1541 34.8361 38.0961C35.3079 42.7749 37.5668 47.0534 40.2671 50.8563C41.3443 48.5831 41.1122 45.8631 41.0944 43.3028C41.0846 42.4724 41.1352 41.6423 41.246 40.8193C50.3719 43.0069 59.9073 44.4108 69.5773 40.9364L71.5179 36.187C71.7902 36.215 72.0627 36.2413 72.3349 36.2702L73.4592 40.9408C76.0081 41.9827 78.5624 42.8933 81.1177 41.9364C81.242 42.6579 81.3169 43.3941 81.3744 44.1018C81.5937 43.2553 81.784 42.4026 81.9555 41.5465C82.2932 41.3653 82.6167 41.1587 82.923 40.9285C82.9848 39.5075 82.9005 38.0839 82.6716 36.6801Z" fill="#2F2E41"/>
</svg>
