<svg width="121" height="120" viewBox="0 0 121 120" fill="none" xmlns="http://www.w3.org/2000/svg">
<path d="M60.3436 119.48C93.3112 119.48 120.037 92.7546 120.037 59.7869C120.037 26.8193 93.3112 0.09375 60.3436 0.09375C27.3759 0.09375 0.650391 26.8193 0.650391 59.7869C0.650391 92.7546 27.3759 119.48 60.3436 119.48Z" fill="white"/>
<path d="M43.9511 37.3881C48.6056 37.3881 52.3788 33.6149 52.3788 28.9604C52.3788 24.3059 48.6056 20.5327 43.9511 20.5327C39.2966 20.5327 35.5234 24.3059 35.5234 28.9604C35.5234 33.6149 39.2966 37.3881 43.9511 37.3881Z" fill="#2F2E41"/>
<path d="M57.436 69.4131C69.2274 69.4131 78.7862 59.8543 78.7862 48.063C78.7862 36.2717 69.2274 26.7129 57.436 26.7129C45.6447 26.7129 36.0859 36.2717 36.0859 48.063C36.0859 59.8543 45.6447 69.4131 57.436 69.4131Z" fill="#2F2E41"/>
<path d="M59.2029 69.4077C68.7847 69.4077 76.5522 61.6401 76.5522 52.0584C76.5522 42.4766 68.7847 34.709 59.2029 34.709C49.6211 34.709 41.8535 42.4766 41.8535 52.0584C41.8535 61.6401 49.6211 69.4077 59.2029 69.4077Z" fill="#B48289"/>
<path d="M70.9834 34.3734C67.9433 32.52 64.461 31.5174 60.9007 31.4705C57.3405 31.4235 53.833 32.334 50.7451 34.1066C47.6571 35.8791 45.1021 38.4488 43.3472 41.5468C41.5923 44.6449 40.7019 48.1575 40.7692 51.7174C49.6096 53.9369 58.897 55.6355 68.3246 52.2483L70.551 46.7993L71.8636 52.2523C74.7346 53.4258 77.6131 54.4187 80.4916 52.241C80.6091 48.6911 79.7928 45.1726 78.1243 42.0371C76.4557 38.9016 73.9934 36.2589 70.9834 34.3734Z" fill="#2F2E41"/>
<path d="M36.1053 6.08254C30.2776 3.41045 22.9655 4.66429 18.113 8.85426C13.2605 13.0442 10.9536 19.8635 11.8904 26.2058C12.846 32.6759 16.7795 38.2475 20.4051 43.6908C24.0309 49.1341 27.573 55.0987 27.5689 61.639C27.566 66.3497 25.6951 70.8669 22.3665 74.2001C19.0378 77.5333 14.5231 79.4104 9.8125 79.4198C15.3412 81.7999 21.1117 84.2267 27.1244 83.9446C33.1371 83.6624 39.4392 79.7971 40.42 73.8582C41.1267 69.5791 39.0273 65.4063 37.2763 61.4384C34.4243 54.9727 32.3628 48.1866 31.1365 41.2271C30.5517 37.9055 30.1709 34.4135 31.2538 31.2193C32.1162 28.8524 33.7163 26.8252 35.8183 25.4367C37.9202 24.0482 40.4127 23.3719 42.9282 23.5075L44.9149 21.7202C45.7986 15.3702 41.9331 8.75459 36.1053 6.08254Z" fill="#2F2E41"/>
<path d="M105.259 99.7262C94.9172 111.493 80.3629 118.722 64.7378 119.851C49.1128 120.98 33.6703 115.92 21.7441 105.762L26.8641 91.4752C28.0212 88.9378 29.8471 86.7631 32.1461 85.1844C34.4451 83.6057 37.1304 82.6825 39.9142 82.5139L43.1714 82.3139L50.9382 75.6153C50.9382 75.6153 71.8656 74.868 71.5551 74.5103L84.2315 82.135L84.221 82.0824L89.2042 82.3876C91.9881 82.5555 94.6738 83.4784 96.9729 85.0571C99.272 86.6359 101.098 88.811 102.254 91.349L105.259 99.7262Z" fill="#0177FB"/>
</svg>
