<svg width="120" height="120" viewBox="0 0 120 120" fill="none" xmlns="http://www.w3.org/2000/svg">
<path d="M60.1698 119.386C93.1374 119.386 119.863 92.6608 119.863 59.6932C119.863 26.7256 93.1374 0 60.1698 0C27.2021 0 0.476562 26.7256 0.476562 59.6932C0.476562 92.6608 27.2021 119.386 60.1698 119.386Z" fill="white"/>
<path d="M62.6036 65.7823C73.3537 65.7823 82.0685 57.0676 82.0685 46.3174C82.0685 35.5673 73.3537 26.8525 62.6036 26.8525C51.8534 26.8525 43.1387 35.5673 43.1387 46.3174C43.1387 57.0676 51.8534 65.7823 62.6036 65.7823Z" fill="#FFB8B8"/>
<path d="M79.7423 33.4584C79.7423 33.4584 84.8103 23.7699 73.6606 22.8892C73.6606 22.8892 64.1553 14.2667 54.4669 21.3129C54.4669 21.3129 49.1823 21.3129 46.2925 27.293C46.2925 27.293 42.1362 25.7167 41.2228 29.9353C41.2228 29.9353 38.1815 38.743 41.2228 46.6699C44.2641 54.5968 45.2743 55.4776 45.2743 55.4776C45.2743 55.4776 43.1404 45.6408 55.3048 44.76C67.4691 43.8792 78.6288 36.2588 79.6425 45.9472C80.6563 55.6356 81.7707 51.259 81.7707 51.259C81.7707 51.259 91.3992 37.4219 79.7423 33.4584Z" fill="#2F2E41"/>
<path d="M104.732 99.3854C94.3899 111.153 79.8355 118.381 64.2105 119.51C48.5854 120.64 33.143 115.579 21.2168 105.421L26.3368 91.1344C27.4939 88.5969 29.3198 86.4222 31.6187 84.8435C33.9177 83.2648 36.6031 82.3417 39.3868 82.1731L42.6441 81.9731L50.4109 75.2745C50.4109 75.2745 71.3383 74.5272 71.0278 74.1694L83.7042 81.7942L83.6936 81.7416L88.6769 82.0468C91.4608 82.2147 94.1464 83.1376 96.4455 84.7163C98.7446 86.2951 100.57 88.4702 101.727 91.0081L104.732 99.3854Z" fill="#0177FB"/>
</svg>
