<svg width="121" height="120" viewBox="0 0 121 120" fill="none" xmlns="http://www.w3.org/2000/svg">
<path d="M60.6561 119.386C93.6237 119.386 120.349 92.6608 120.349 59.6932C120.349 26.7256 93.6237 0 60.6561 0C27.6884 0 0.962891 26.7256 0.962891 59.6932C0.962891 92.6608 27.6884 119.386 60.6561 119.386Z" fill="white"/>
<path d="M36.2947 36.3448C35.4754 40.7465 34.132 45.0343 32.2932 49.1166C21.7632 71.3926 51.7505 64.1318 62.467 64.1318C74.1839 64.1318 85.3945 70.293 83.6822 42.9165C82.9509 31.2224 74.1838 21.7012 62.467 21.7012C52.4588 21.7012 38.3875 26.1496 36.2947 36.3448Z" fill="#2F2E41"/>
<path d="M60.7125 64.1261C70.2338 64.1261 77.9523 56.4076 77.9523 46.8863C77.9523 37.365 70.2338 29.6465 60.7125 29.6465C51.1912 29.6465 43.4727 37.365 43.4727 46.8863C43.4727 56.4076 51.1912 64.1261 60.7125 64.1261Z" fill="#FFB6B6"/>
<path d="M49.0042 29.3126C52.0251 27.4709 55.4854 26.4746 59.0232 26.428C62.5609 26.3813 66.0463 27.286 69.1147 29.0474C72.1832 30.8088 74.7221 33.3622 76.4659 36.4407C78.2098 39.5192 79.0945 43.0096 79.0277 46.5471C70.2431 48.7526 61.0143 50.4405 51.6462 47.0746L49.4338 41.6601L48.1295 47.0786C45.2766 48.2447 42.4163 49.2313 39.556 47.0674C39.4392 43.5399 40.2503 40.0436 41.9084 36.9279C43.5664 33.8122 46.0132 31.1862 49.0042 29.3126Z" fill="#2F2E41"/>
<path d="M107.071 99.3854C96.7297 111.153 82.1754 118.381 66.5503 119.51C50.9253 120.64 35.4828 115.579 23.5566 105.421L28.6766 91.1344C29.8337 88.5969 31.6596 86.4222 33.9586 84.8435C36.2576 83.2648 38.9429 82.3417 41.7267 82.1731L44.9839 81.9731L52.7507 75.2745C52.7507 75.2745 73.6781 74.5272 73.3676 74.1694L86.044 81.7942L86.0335 81.7416L91.0167 82.0468C93.8006 82.2147 96.4863 83.1376 98.7854 84.7163C101.084 86.2951 102.91 88.4702 104.067 91.0081L107.071 99.3854Z" fill="#0177FB"/>
</svg>
