<svg width="120" height="120" viewBox="0 0 120 120" fill="none" xmlns="http://www.w3.org/2000/svg">
<path d="M119.711 59.7991C119.69 71.6052 116.168 83.1401 109.592 92.9449C103.015 102.75 93.6787 110.384 82.7632 114.883C71.8477 119.382 59.8433 120.542 48.2681 118.219C36.6928 115.895 26.0666 110.191 17.7332 101.828C9.39978 93.4647 3.73342 82.8183 1.45068 71.2349C-0.832063 59.6515 0.371343 47.6513 4.90871 36.7518C9.44608 25.8524 17.1136 16.5432 26.9417 10.0014C36.7698 3.45964 48.3171 -0.0208377 60.1233 9.38596e-05C67.968 -0.00635474 75.7367 1.53753 82.9829 4.54304C90.2291 7.54855 96.8099 11.9564 102.347 17.5133C107.884 23.0702 112.269 29.6666 115.249 36.9234C118.228 44.1802 119.745 51.9544 119.711 59.7991Z" fill="white"/>
<path d="M32.3498 40.2753C34.8181 32.409 40.4311 25.1943 48.1937 22.535C55.9568 19.8757 67.3239 23.9267 73.1599 29.743C83.8353 40.3823 86.4405 76.932 79.1061 88.4821C77.6472 88.4049 72.6133 88.3478 71.1368 88.2925L69.0481 81.3309V88.2238C66.6958 88.1511 64.3251 88.1009 61.936 88.0733C53.9258 87.9739 46.2661 84.7728 40.5672 79.143C34.8682 73.5131 31.574 65.8931 31.3769 57.8847C31.1858 50.2234 31.3771 43.3753 32.3498 40.2753Z" fill="#2F2E41"/>
<path d="M59.1313 66.3461C68.5268 66.3461 76.1434 58.7295 76.1434 49.3339C76.1434 39.9384 68.5268 32.3218 59.1313 32.3218C49.7357 32.3218 42.1191 39.9384 42.1191 49.3339C42.1191 58.7295 49.7357 66.3461 59.1313 66.3461Z" fill="#B48289"/>
<path d="M44.4492 34.3931L64.0371 24.585C68.0417 26.3895 71.4906 29.2326 74.0261 32.8193C76.5617 36.406 78.0915 40.6057 78.4569 44.9829L78.9452 50.8311L70.7427 48.7431L69.8441 41.2651L68.4512 48.1598L64.6658 47.1967L64.7018 35.587L60.9141 47.1884L47.3944 44.0823L44.4492 34.3931Z" fill="#2F2E41"/>
<path d="M104.314 99.1955C93.9719 110.963 79.4176 118.191 63.7925 119.32C48.1674 120.45 32.725 115.389 20.7988 105.231L25.9188 90.9445C27.0759 88.407 28.9018 86.2323 31.2008 84.6536C33.4998 83.0749 36.1851 82.1518 38.9688 81.9831L42.2261 81.7832L49.9929 75.0845C49.9929 75.0845 70.9203 74.3373 70.6098 73.9795L83.2862 81.6043L83.2757 81.5516L88.2589 81.8568C91.0428 82.0247 93.7284 82.9476 96.0276 84.5264C98.3267 86.1052 100.152 88.2803 101.309 90.8182L104.314 99.1955Z" fill="#0177FB"/>
</svg>
