<svg width="14" height="16" viewBox="0 0 14 16" fill="none" xmlns="http://www.w3.org/2000/svg">
<path d="M10.3333 13.3335H10.2C9.0799 13.3335 8.51984 13.3335 8.09202 13.1155C7.71569 12.9238 7.40973 12.6178 7.21799 12.2415C7 11.8137 7 11.2536 7 10.1335V5.86683C7 4.74672 7 4.18667 7.21799 3.75885C7.40973 3.38252 7.71569 3.07656 8.09202 2.88482C8.51984 2.66683 9.0799 2.66683 10.2 2.66683H10.3333M10.3333 13.3335C10.3333 14.0699 10.9303 14.6668 11.6667 14.6668C12.403 14.6668 13 14.0699 13 13.3335C13 12.5971 12.403 12.0002 11.6667 12.0002C10.9303 12.0002 10.3333 12.5971 10.3333 13.3335ZM10.3333 2.66683C10.3333 3.40321 10.9303 4.00016 11.6667 4.00016C12.403 4.00016 13 3.40321 13 2.66683C13 1.93045 12.403 1.3335 11.6667 1.3335C10.9303 1.3335 10.3333 1.93045 10.3333 2.66683ZM3.66667 8.00016L10.3333 8.00016M3.66667 8.00016C3.66667 8.73654 3.06971 9.3335 2.33333 9.3335C1.59695 9.3335 1 8.73654 1 8.00016C1 7.26378 1.59695 6.66683 2.33333 6.66683C3.06971 6.66683 3.66667 7.26378 3.66667 8.00016ZM10.3333 8.00016C10.3333 8.73654 10.9303 9.3335 11.6667 9.3335C12.403 9.3335 13 8.73654 13 8.00016C13 7.26378 12.403 6.66683 11.6667 6.66683C10.9303 6.66683 10.3333 7.26378 10.3333 8.00016Z" stroke="#666666" stroke-width="1.5" stroke-linecap="round" stroke-linejoin="round"/>
</svg>
