<svg width="12" height="8" viewBox="0 0 12 8" fill="none" xmlns="http://www.w3.org/2000/svg">
<path fill-rule="evenodd" clip-rule="evenodd" d="M5.74815 0.998154C5.9071 0.839262 6.12264 0.75 6.34738 0.75C6.57212 0.75 6.78766 0.839262 6.9466 0.998154L11.7412 5.7928C11.8222 5.87098 11.8868 5.96451 11.9312 6.06791C11.9756 6.17132 11.999 6.28254 12 6.39508C12.0009 6.50761 11.9795 6.61922 11.9369 6.72338C11.8943 6.82754 11.8313 6.92218 11.7518 7.00176C11.6722 7.08134 11.5775 7.14427 11.4734 7.18689C11.3692 7.2295 11.2576 7.25095 11.1451 7.24997C11.0325 7.24899 10.9213 7.22561 10.8179 7.18119C10.7145 7.13677 10.621 7.0722 10.5428 6.99125L6.34738 2.79583L2.15196 6.99125C1.9921 7.14564 1.77801 7.23107 1.55578 7.22914C1.33356 7.22721 1.12098 7.13807 0.963833 6.98093C0.806688 6.82378 0.71755 6.6112 0.715619 6.38898C0.713688 6.16675 0.799117 5.95265 0.953507 5.7928L5.74815 0.998154Z" fill="#0177FB"/>
</svg>
